<?xml version="1.0" encoding="UTF-8"?>
<svg version="1.1" viewBox="0 0 1693 2048" width="454" height="549" xmlns="http://www.w3.org/2000/svg">
<path transform="translate(234,413)" d="m0 0h23l36 3 36 6 27 6 35 10 36 12 49 19 37 17 28 13 28 14 22 12 26 14 18 11 1 3-9-3-26-12-36-15-42-16-39-14-47-15-33-9-41-9-33-6-23-3-30-2h-23l-23 2-22 4-20 6-15 7-12 7-10 8-9 9-9 13-7 14-5 17-2 12-1 11v14l3 26 5 23 6 21 10 26 10 23 14 28 13 23 16 27 19 29 14 20 14 19 12 16 14 18 13 17 11 13 9 11 12 14 9 11 11 12 9 11 15 16 7 8 16 17 14 15 8 8 7 8 39 39 8 7 18 18 8 7 9 9 8 7 16 15 11 10 8 7 11 10 8 7 14 12 11 10 11 9 14 12 22 18 17 14 14 11 12 10 28 22 17 13 13 10 32 24 54 39 16 11 14 10 45 30 20 13 38 24 28 17 15 9 34 20 45 25 28 15 19 10 16 8 31 15 29 13 30 13 43 17 53 18 36 10 42 9 26 4 23 2h34l19-2 19-4 21-8 15-8 10-8 10-10 10-16 6-15 4-22 1-21-2-23-4-24-6-22-12-35-11-26-16-33-12-22-12-21-14-23-12-19-8-12-13-19-10-14-13-18-16-21-12-16-20-25-18-22-11-13-9-11-13-15-9-10-6-8-4 1-56 56-8 7-15 15-6 5 1 4 7 10 12 22 9 15 13 23 14 24 20 35 15 26 12 21 14 24 15 26 24 42 11 19 17 29 13 23 14 24 14 25 10 17 14 25 6 12v3l-26 3h-23l-19-2-4-4-17-29-15-26-14-24-9-16-14-24-13-23-14-24-13-23-16-27-14-25-14-24-9-16-16-27-13-23-14-24-14-25-9-16-2-5-4 2-8 7-14 12-9 8h-2l8 14 9 15 13 23 14 24 15 26 12 21 14 24 12 21 14 24 16 28 11 19 30 52 14 24 16 28 10 18v3l-9-2-32-9-32-10-27-10-33-13-30-13-33-15-51-25-19-10-26-14-18-10-21-12-24-14-20-12-26-16-14-9-1-2-6-1-16-10-45-30 5-5 15-10 36-26 38-28 10-8 12-9 26-20 25-20 14-11 17-14 11-9 39-33 10-9 10-8 14-13 11-9 16-15 8-7 16-15 10-9 8-8 8-7 18-18 8-7 45-45 7-8 13-13 1-2h2l2-4 9-9 7-8 9-10 7-8 10-11 9-11 11-12 11-14 10-11 8-10 11-14 14-18 10-13 26-36 25-38 12-20 15-26 17-33 12-28 10-28 5-18 5-28 2-20v-12l-3-24-5-16-8-16-9-12-11-11-13-9-16-8-21-7-19-4-17-2-16-1h-26l-34 3-26 4-39 8-48 12-35 11-36 12-38 14-29 11-42 18-25 11v-3l21-12 29-16 28-15 30-15 33-15 30-13 40-15 33-11 39-11 28-6 39-6 27-2h24l31 3 24 5 15 5 16 8 14 8 13 10 13 12 10 12 12 20 8 20 5 21 2 13 1 14v17l-2 24-5 29-7 28-9 26-11 28-10 22-8 16-13 25-14 24-10 17-12 19-25 37-13 18-8 11-9 12-16 21-13 16-11 14-12 14-8 10-26 30-14 15-7 8-9 10-11 12-7 7 1 4 26 26 7 8 10 10 7 8 9 9 7 8 12 13 9 11 7 7 9 11 12 14 13 16 13 17 14 18 12 16 13 18 16 24 9 13 14 23 13 22 8 16 11 21 12 27 10 26 8 25 6 26 4 25 1 27-1 17-4 22-5 16-9 21-10 16-11 14-14 14-13 10-19 11-19 8-16 6-1 3 2 9v40l-3 23-5 21-7 19-9 19-11 18-11 14-11 12-8 8-11 9-17 12-16 9-16 8-20 8-24 7-17 4-29 4-22 2h-871l-33-4-22-4-19-5-27-9-21-10-17-10-18-13-10-9-8-7-12-13-14-19-12-21-8-20-6-20-4-21-1-12v-33l1-12 2-5-12-5-16-6-17-8-13-8-13-10-19-19-11-16-8-14-7-19-5-21-3-24v-21l3-25 6-31 7-24 10-27 12-28 18-36 13-23 10-17 32-48 13-18 15-20 13-17 11-14 14-17 9-11 13-15 7-8 18-20 7-8 12-13 14-15 15-16 21-21-1-4-9-9-7-8-15-16-9-10-12-14-10-11-9-11-13-15-11-14-7-8-7-9-12-15-24-32-10-14-14-20-20-30-12-19-13-22-14-25-12-23-13-28-10-25-10-28-8-29-5-28-2-15-1-15v-14l2-22 5-25 8-20 8-15 10-14 7-8 8-7 9-8 15-10 15-8 22-8 24-5 16-2zm147 686-9 11-9 10-9 11-13 15-9 11-10 12-9 11-10 13-12 15-24 32-11 15-10 14-11 16-10 15-12 19-12 20-13 22-13 23-15 30-11 25-11 30-8 26-5 23-3 22v30l3 18 5 16 7 13 10 13 9 9 15 10 15 7 19 6 16 3 26 2h15l29-2 27-4 34-7 35-9 25-8 30-10 27-10 39-16 29-13 27-12 56-28 22-12 26-14 16-9 26-15 15-9 23-14 38-24 8-5-1-4-22-15-5-2-5 4-21 13-35 21-24 14-21 12-29 16-27 14-19 10-38 19-33 15-35 15-44 17-36 12-45 13-5 1 8-16 9-15 16-28 75-130 14-24 16-28 14-24 16-28 15-26 14-24 8-13 2-5-7-7-8-7-14-12-8-6-10 20-15 26-14 24-24 42-14 24-15 26-16 28-14 24-13 23-10 17-15 26-14 25-10 17-15 26-11 19-17 29-6 9-15 1h-33l-20-2 9-19 15-27 12-20 13-23 10-17 14-24 14-25 16-27 12-21 14-24 15-26 14-24 12-21 14-24 28-49 14-24 12-21 14-24 3-3-1-4-32-32-8-7-47-47zm-85 624-43 2-1 1-1 12v27l2 16 6 23 7 16 10 16 11 13 9 9 14 11 15 9 24 11 19 6 24 5 31 4 536 1 330-1 30-3 26-5 30-10 16-8 17-10 7-6 8-6v-2l4-2v-2l4-2 8-10 9-13 7-14 7-21 4-23v-40l-2-2-25-1h-24l3 16v26l-4 18-5 13-7 11-7 9-7 7-11 8-21 11-18 6-23 5-17 2-15 1h-850l-25-2-23-4-20-6-19-9-12-8-10-9-8-8-9-14-6-16-2-8v-42l2-4v-3z" fill="#244C87"/>
<path transform="translate(854,1488)" d="m0 0 7 1 19 12 10 7 9 5 30 18 14 8 35 21 33 18 14 7 14 8 16 8 19 9 15 8 15 7 19 9 24 11 39 16 28 11 21 8 10 3 10 4 25 8 43 12 43 10 31 5 16 1h20v1h-18l2 4 2 12v26l-4 18-5 13-7 11-7 9-8 8-11 8-21 11-18 6-23 5-17 2-15 1h-850l-25-2-23-4-20-6-19-9-12-8-10-9-9-9-9-14-6-16-2-8v-42l3-7-3-1 3-1h9l30-4 27-5 36-9 25-7 14-5 17-5 39-14 30-12 37-15 10-5 25-11 16-8 19-9 10-5 17-9 21-10 10-6 11-6 14-8 6-3 23-13 9-5 24-14 10-6 11-7 13-8 10-6 7-5 11-6z" fill="#637FA9"/>
<path transform="translate(733,270)" d="m0 0h250l15 2 17 5 19 10 13 11 8 8 9 13 8 16 4 14 2 13v21l-4 20-7 16-10 15-1 421 1 7 11 17 45 78 12 21 14 24 14 25 10 17 24 42 6 10-2 4-17 16-8 7-12 11-4 4h-2v2l-4-2-15-26-11-19-14-24-10-17-9-16-10-17-14-25-10-17-15-26-11-19-15-26-17-26v-474l13-10 6-10 2-7v-14l-3-10-6-10-8-6-9-4-4-1h-252l-11 4-8 6-6 9-4 10-1 4v10l4 11 6 9 7 6 4 3v476l-7 10-12 19-12 21-15 26-10 17-32 56-14 24-15 26-10 17-15 26-7 11-2 5-4-2-11-10-8-7-10-9-12-11-3-3 2-5 10-18 10-17 16-28 10-17 14-25 10-17 12-21 10-17 15-26 8-14 11-19 7-11 1-10v-416l-3-7-8-13-5-11-4-14-2-16 1-15 2-14 7-19 8-14 9-11 10-10 11-8 16-8 12-4z" fill="#0FAFEA"/>
<path transform="translate(1524,1719)" d="m0 0 2 2 2 9v40l-3 23-5 21-7 19-9 19-11 18-11 14-11 12-8 8-11 9-17 12-16 9-16 8-20 8-24 7-17 4-29 4-22 2h-871l-33-4-22-4-19-5-27-9-21-10-17-10-18-13-10-9-8-7-12-13-14-19-12-21-8-20-6-20-4-21-1-12v-33l1-12 4-5 47 5 11 3 1-2v39l2 16 6 23 7 16 10 16 11 13 8 8 14 11 15 9 24 11 19 6 24 5 31 4 536 1 330-1 30-3 26-5 30-10 16-8 17-10 7-6 6-5h2v-2l8-7 10-13 7-11 6-12 7-21 4-23 1-39 13-3 40-5 5 1z" fill="#0DAFEA"/>
<path transform="translate(653,1093)" d="m0 0h411l4 4 14 25 10 17 14 25 4 6-2 4-11 10-11 9-14 12-11 9-16 13-14 11-16 13-26 20-18 14-19 14-16 12-36 26-14 10-20 14-7 4-7-4-17-12-14-10-17-12-12-9-38-28-30-23-15-12-9-7-14-11-16-13-22-18-13-11-10-8-13-11-4-3 1-5 11-20 14-24 9-16 9-14z" fill="#637FA9"/>
<path transform="translate(1160,1258)" d="m0 0 3 4 15 25 13 23 14 24 15 26 12 21 14 24 12 21 14 24 16 28 11 19 30 52 14 24 16 28 10 18v3l-9-2-32-9-32-10-27-10-33-13-30-13-33-15-51-25-19-10-26-14-18-10-21-12-24-14-20-12-26-16-14-9-1-2-6-1v-1l6-2 22-15 13-10 30-22 28-21 14-11 8-6h2l1-3 16-12 8-7h2v-2l8-6h2l1-3 12-9 3-1v-2l5-4h2v-2l10-8 10-9 8-7h2z" fill="#637FA9"/>
<path transform="translate(556,1260)" d="m0 0 7 6 13 12 10 8v2l4 2 11 9 17 14 10 8 18 14 10 8 13 10 6 4v2l5 2 16 13 30 22 14 10 12 8 13 9 2 2-6 5-21 13-35 21-24 14-21 12-29 16-27 14-19 10-38 19-33 15-35 15-44 17-36 12-45 13-6 1 2-6 12-21 14-24 16-28 15-26 12-21 14-24 16-28 14-24 15-26 16-28 10-17 16-28 14-24 15-26z" fill="#637FA9"/>
<path transform="translate(1244,1187)" d="m0 0 5 5 10 17 9 16 10 17 28 49 10 17 13 23 14 24 16 28 14 24 12 21 15 26 12 21 17 29 13 23 14 24 14 25 10 17 14 25 6 12v3l-26 3h-23l-19-2-4-4-17-29-15-26-14-24-9-16-14-24-13-23-14-24-13-23-16-27-14-25-14-24-9-16-16-27-13-23-14-24-14-25-9-16-2-6 17-16 8-8 10-8 5-3h3l2-4z" fill="#10B0EA"/>
<path transform="translate(471,1184)" d="m0 0 4 2 7 8 15 14 11 11 8 7v2h2l-1 7-12 22-13 22-16 28-14 24-12 21-14 24-16 28-60 104-14 25-10 17-15 26-11 19-17 29-6 9-1 1-15 1h-33l-20-2-1-2 12-24 14-24 11-19 15-26 8-13 6-11 8-14 14-24 9-16 10-17 8-14 14-24 15-26 14-24 12-21 14-24 28-49 14-24 12-21 14-24 3-3z" fill="#0CAEEA"/>
<path transform="translate(938,155)" d="m0 0 13 1 9 4 8 6 7 10 3 9v12l-4 11-6 8-7 6-9 4-5 1h-11l-10-3-8-6-7-8-4-9-1-4v-12l4-11 7-9 8-6z" fill="#254D87"/>
<path transform="translate(1097,859)" d="m0 0 5 1 18 14 16 12 14 11 17 13 17 14 12 10 11 9 13 11 11 9 14 12 10 9 11 9 8 8 8 7 2 3-12 11-3 4-5-2-7-8-10-10-7-8-68-68-8-7-11-11-2-1v-2l-4-2-13-13-8-7-14-13-8-7-7-7z" fill="#32588E"/>
<path transform="translate(618,858)" d="m0 0h3l-2 4-13 12-8 7-3 1v2l-8 7-4 4h-2v2l-8 7-8 8-8 7-28 28-8 7-53 53-7 8-8 8-1 2-4-1-14-14 5-6 11-9 16-15 11-9 10-9 11-9 13-11 14-11 14-12 14-11 15-12 15-11 16-12 13-10z" fill="#2C538B"/>
<path transform="translate(769,110)" d="m0 0 11 2 8 5 6 7 3 7v13l-5 10-8 7-8 3h-13l-8-4-5-5-5-8-2-6 1-11 4-8 7-7 8-4z" fill="#254E88"/>
<path transform="translate(877,7)" d="m0 0h10l6 4 3 5v10l-3 5-6 4h-11l-6-5-3-8 1-6 5-7z" fill="#2D548C"/>
<path transform="translate(531,1104)" d="m0 0 5 2 7 7 9 7 11 11h-3l-12-11-8-7-9-8z" fill="#FDFDFD"/>
<path transform="translate(233,1881)" d="m0 0 7 6 21 21h-3l-16-15-9-10z" fill="#FDFDFD"/>
<path transform="translate(1094,542)" d="m0 0 2 1v3l-17 7 2-4z" fill="#8EA2C0"/>
<path transform="translate(621,542)" d="m0 0 11 6 4 3v2l-9-3-6-3 2-2-2-1z" fill="#B3C0D4"/>
<path transform="translate(1486,1723)" d="m0 0h9v1l-22 3-7 1-2-3z" fill="#6984AC"/>
<path transform="translate(1243,1184)" d="m0 0h1v5l-3 4-8 4-3 3-2-1 8-8 6-5z" fill="#637FA9"/>
<path transform="translate(498,1209)" d="m0 0 4 2 16 15 1 2h-3l-6-7-8-7z" fill="#637FA9"/>
<path transform="translate(1097,859)" d="m0 0 5 1 5 5v2l5 6-4-2-11-11z" fill="#CCD5E2"/>
<path transform="translate(618,858)" d="m0 0h3l-2 4-7 6-2-3z" fill="#B8C5D7"/>
<path transform="translate(1065,878)" d="m0 0 3 1 8 14-1 2-6-9z" fill="#869FC0"/>
<path transform="translate(1521,1718)" d="m0 0h5l-2 1v2h-15v-1z" fill="#6883AC"/>
<path transform="translate(471,1184)" d="m0 0 4 2 5 6h-8v-6z" fill="#6D8FB6"/>
</svg>
