<?xml version="1.0" encoding="UTF-8"?>
<svg version="1.1" viewBox="0 0 1024 1024" width="1024" height="1024" xmlns="http://www.w3.org/2000/svg">
<path transform="translate(151,319)" d="m0 0h29l21 3 24 6 18 6 24 10 21 10 19 11 6 4 1 26-11-6-13-8-23-12-21-9-22-8-27-7-19-3h-26l-15 4-9 5-7 7-5 10-2 8v16l3 16 5 16 8 20 13 24 16 24 11 15 14 18 13 15 7 8 18 20 15 15 6 7 8 7 18 18 8 7 15 14 11 9 9 8 22 18 30 23 19 14 17 12 23 16 18 12 14 9 17 11 15 9 8 7 12 14 14 15 8 9-2 1-7-3-288-1-12-4-10-9-6-12-1-4v-11l4-11 9-17 13-23 16-29 13-23 14-25v-3l-8-7-7-5-13 24-13 23-25 45-14 25-5 12-3 13v14l3 12 6 12 9 10 10 7 9 4 8 2h323l13-4 10-6 5-4 9 2 22 7-2 5-6 8-8 7-10 7-13 6-9 3-12 2h-323l-17-4-12-5-12-7-12-11-8-9-6-10-5-12-3-11-1-7v-21l3-16 6-17 10-19 12-21 13-23 14-25 14-24 9-16-4-5-3 1-13 17-11 14-14 19-13 18-10 15-13 21-10 18-11 23-7 19-4 18-1 16 2 14 4 10 7 9 7 6 12 5 18 4 12 9 14 8 8 3v1l-12 1h-27l-16-3-16-6-10-7-10-9-8-12-5-13-2-9v-26l4-20 8-24 11-24 10-19 13-21 12-18 14-20 13-17 11-14 11-13 8-10-1-4-12-12-7-8-9-10-9-11-8-9-13-17-13-18-10-15-12-20-9-17-10-25-5-18-3-18v-18l4-16 6-11 9-10 10-7 10-5 14-4z" fill="#275A8D"/>
<path transform="translate(638,495)" d="m0 0h51l3 7 6 27v3l7 1 16 5 19 10 5 1 13-9 12-8 4 1 8 7 17 16 10 11 1 6-9 15-7 10 1 7 8 17 6 18 6 2 27 5 2 2 1 7v38l-2 7-5 2-25 4-3 1-7 19-8 16-2 6 12 19 5 7-1 5-9 10-14 15-11 11h-6l-20-12-9-5-16 9-14 6-12 4-4 15-4 18-2 2-31 1h-12l-8-1-3-6-6-28-7-3-16-5-17-9-3-2-4 1-21 14-7 1-33-33-3-4v-5l12-18 4-7-1-5-9-19-6-17-17-3-16-3-2-3v-48l2-4 31-6h2l3-9 6-16 6-12v-6l-9-15-7-12 3-6 16-16h2v-2l16-14h5l24 16 5-1 12-7 19-7 10-2 4-18 3-15zm19 88-18 3-16 6-11 6-15 12-9 11-7 11-5 11-4 14-1 7v24l3 14 5 13 6 11 10 13 9 9 14 9 13 6 15 4 7 1h21l15-3 15-6 12-7 11-9 7-7 10-14 7-15 4-16 1-7v-18l-3-16-5-13-8-14-12-14-11-9-14-8-16-6-9-2-9-1z" fill="#254B72"/>
<path transform="translate(313,209)" d="m0 0h177l8 4 7 8 2 6v8l-3 8-8 7-5 2h-13l1 190 14 25 14 24 15 27 5 10-15 15-8 7-3-1-13-23-14-24-14-25-14-24-4-9v-165l1-27h-85v196l-10 19-13 23-16 29-13 24-13 23-13 24-7 11-4-2-10-10-8-7-3-4 15-28 9-16 13-24 13-23 13-24 12-22 1-189h-12l-6-3-5-4-4-8v-12l4-8 7-6z" fill="#1D9AE5"/>
<path transform="translate(273,649)" d="m0 0 8 6 11 9 13 11 14 11 17 14 19 14 16 12 17 12 23 16 18 12 22 14 21 13 32 18 12 6 3 2h-287l-12-4-10-9-6-12-1-4v-11l4-11 9-17 13-23 16-29 13-23 14-25z" fill="#1D9AE5"/>
<path transform="translate(739,268)" d="m0 0h79l7 3 4 5 1 4v279l-32-32-11-9-8-6-6-2h-8l-10 5-11 8-5-1-10-7-1-1v-236l4-6 4-3z" fill="#254C72"/>
<path transform="translate(316,570)" d="m0 0h175l6 9 12 21 1 4-9 16-21 5-10 5-6 7-3 9v53l2 9 5 8 8 5 13 4 11 2 10 18-5 10-8 14-6-2-24-15-30-20-17-12-14-10-38-28-18-14-14-11-16-13-10-8-13-11-8-7 6-11 16-29z" fill="#1D9AE5"/>
<path transform="translate(234,613)" d="m0 0 7 6 11 10 6 5-8 15-15 27-28 50-15 27-5 12-3 13v14l3 12 6 12 9 10 10 7 9 4 8 2h323l13-4 10-6 5-4 9 2 22 7-2 5-6 8-8 7-10 7-13 6-9 3-12 2h-323l-17-4-12-5-12-7-12-11-8-9-6-10-5-12-3-11-1-7v-21l3-16 6-17 10-19 12-21 13-23 14-25 14-24z" fill="#1D9AE5"/>
<path transform="translate(609,345)" d="m0 0h80l7 4 3 5 1 14v99l-1 7-13-2h-46l-12 3-6 4-5 8-5 14-3 10-4 2h-6l-1-1v-155l3-7 5-4z" fill="#254C72"/>
<path transform="translate(509,422)" d="m0 0h52l6 3 3 4 1 3v77l-1 4-9-3h-7l-7 1-6-9-14-26-20-36v-13z" fill="#254D74"/>
<path transform="translate(430,78)" d="m0 0h10l8 3 7 6 4 8 1 9-4 11-4 5-6 4-6 2h-10l-9-4-8-9-2-6v-9l3-8 7-8z" fill="#1E9AE5"/>
<path transform="translate(380,141)" d="m0 0h9l8 4 4 5 2 5v11l-3 6-5 5-6 3h-10l-8-4-6-10v-11l3-6 7-6z" fill="#1E9AE5"/>
<path transform="translate(174,546)" d="m0 0 7 6 9 11 16 17 9 10v3l-4 2 1-5-13-13-7-8-9-10-9-11z" fill="#255682"/>
<path transform="translate(218,566)" d="m0 0 4 2 15 15 6 7 8 7 7 7-3 1v-2l-4-2-33-33z" fill="#236090"/>
<path transform="translate(92,383)" d="m0 0h1l4 27 6 20v3h-2l-6-19-3-15z" fill="#245681"/>
<path transform="translate(106,843)" d="m0 0 3 1 6 8 8 8 11 7 7 3-4 1-10-5-11-9-7-8z" fill="#245784"/>
<path transform="translate(193,873)" d="m0 0 10 3v1l-12 1h-22v-2l24-1z" fill="#25537D"/>
<path transform="translate(175,517)" d="m0 0h3l7 9 12 14 4 6-4-2-9-10-11-14z" fill="#245783"/>
<path transform="translate(151,484)" d="m0 0 4 2 13 19 5 6h-3l-10-13-7-10z" fill="#245A87"/>
<path transform="translate(141,503)" d="m0 0 5 5 14 19 1 4-5-5-14-19z" fill="#255580"/>
<path transform="translate(226,606)" d="m0 0 5 1 14 14h-3l-7-7-6-5-3 1-4 4 1-4z" fill="#245987"/>
<path transform="translate(311,371)" d="m0 0h2l1 24-6-3v-2h2z" fill="#254F78"/>
<path transform="translate(263,611)" d="m0 0 4 2 12 11 7 6-3 1-9-9-8-7z" fill="#245986"/>
<path transform="translate(519,813)" d="m0 0 4 2 6 7-2 1-12-6 4-2z" fill="#235F8F"/>
<path transform="translate(256,632)" d="m0 0 4 2 9 9 8 7 1 2-4-2-12-11-5-5z" fill="#255783"/>
<path transform="translate(119,823)" d="m0 0h2l6 12 3 5-4-2-7-12z" fill="#25537D"/>
<path transform="translate(174,546)" d="m0 0 7 6 6 7-1 3-10-11z" fill="#245986"/>
<path transform="translate(129,486)" d="m0 0 3 1 8 12v2l-3-1-8-13z" fill="#255683"/>
<path transform="translate(494,785)" d="m0 0h2l9 11 3 4-4-2-10-11z" fill="#255682"/>
<path transform="translate(193,873)" d="m0 0 10 3v1h-12z" fill="#255580"/>
<path transform="translate(118,797)" d="m0 0h1v17h-2l-1-11z" fill="#3A78A6"/>
<path transform="translate(507,800)" d="m0 0 4 2 7 8 2 3-4-2-9-9z" fill="#245B8A"/>
<path transform="translate(208,555)" d="m0 0 4 2 7 8h-3l-8-8z" fill="#245A88"/>
</svg>
