<?xml version="1.0" encoding="UTF-8"?>
<svg version="1.1" viewBox="0 0 2048 493" width="656" height="158" xmlns="http://www.w3.org/2000/svg">
<path transform="translate(566,108)" d="m0 0h118l21 2 20 6 11 6 12 11 6 9 5 13 2 11v19l-3 11-5 10-9 10-8 6-10 5-6 1 3 3 17 8 9 7 9 9 6 11 4 12 1 7v20l-4 16-7 14-9 10-9 7-15 7-14 4-17 2-38 1h-30l-60-1-1-7v-242zm49 38v67h72l13-5 7-8 4-10 1-13-2-12-5-8-8-7-11-4zm0 105v75l1 2h61l19-3 12-6 7-8 3-6 2-10v-12l-3-12-5-8-5-5-7-4-7-2-14-1z" fill="#22457A"/>
<path transform="translate(1757,108)" d="m0 0h101l28 2 18 4 14 5 11 6 10 8 8 9 8 14 6 16 4 17 3 28v38l-3 30-5 21-8 18-8 11-6 7-13 9-13 6-19 5-15 2-13 1-107 1-1-1zm50 38v182h46l18-2 10-2 12-5 10-9 8-14 4-13 2-10 1-16v-45l-1-13-5-19-7-14-8-9-14-7-18-4z" fill="#22457A"/>
<path transform="translate(1497,108)" d="m0 0h49l1 187 3 13 6 10 7 6 12 5 11 2h27l12-3 11-6 6-5 6-12 1-10v-166l1-21h48l2 2v183l-3 20-5 14-7 11-8 9-10 7-14 7-16 5-16 3-9 1h-32l-22-4-13-4-16-8-10-8-9-10-8-16-4-14-1-6z" fill="#22457A"/>
<path transform="translate(390,104)" d="m0 0h27l11 4 8 6 8 8 6 10 7 18 20 65 34 111 11 36v3h-47l-2-1-6-19-10-35-2-5h-104l-2 9-12 44-3 7h-45l-3-1 4-17 11-34 9-30 21-69 16-52 7-20 8-16 8-11 8-6zm10 45-4 5-4 11-20 68-8 28-1 7 1 1h80l-1-9-14-50-15-50-4-8-3-3z" fill="#22457A"/>
<path transform="translate(1134,104)" d="m0 0h28l11 4 10 8 9 13 8 18 17 55 12 40 13 42 15 48 8 28-1 5h-45l-3-5-9-31-6-21-1-3h-103l-4 10-14 49-1 1h-47l-1-2 8-26 15-48 13-43 13-44 12-40 9-25 8-15 10-11 10-5zm10 45-5 7-20 67-11 39v7h81l-1-8-11-38-16-54-6-16-3-4z" fill="#22457A"/>
<path transform="translate(888,104)" d="m0 0h42l20 4 14 5 14 8 10 8 10 11 2 3-1 4-13 11-14 11-2 2-4-1v-2l-4-2-10-10-13-8-11-4-5-1h-27l-9 2-12 6-6 8-4 13v13l3 9 7 8 14 7 15 5 44 11 18 6 15 8 13 12 6 8 5 12 2 12v22l-3 15-5 12-6 9-8 8-15 9-21 7-30 5h-37l-21-4-12-4-15-8-11-9-10-10-9-11 1-4 8-8 11-9 10-9h3l6 9 9 10 10 8 12 6 9 3 13 1h17l15-2 13-4 9-6 6-10 1-4v-20l-6-8-9-6-20-7-18-5-26-6-17-5-16-8-11-9-8-9-8-16-3-13v-27l4-15 8-15 9-10 13-9 15-7 15-4z" fill="#22457A"/>
<path transform="translate(95,108)" d="m0 0h49l1 1 1 185 2 11 6 12 9 6 9 3 8 1 83 1 1 1v35l-1 1h-95l-18-2-18-6-10-6-10-9-8-12-5-13-3-16-1-10-1-98v-38z" fill="#22457A"/>
<path transform="translate(1293,108)" d="m0 0h49l1 3v182l2 12 4 9 8 8 8 3 10 2 87 1v21l-1 15-1 1h-92l-18-2-15-4-13-7-10-9-6-7-8-16-4-17-1-10z" fill="#22457A"/>
</svg>
