<?xml version="1.0" encoding="UTF-8"?>
<svg version="1.1" viewBox="0 0 2048 363" width="2927" height="519" xmlns="http://www.w3.org/2000/svg">
<path transform="translate(745,65)" d="m0 0h111l18 2 18 6 9 5 11 10 7 12 3 8 1 6v24l-3 10-5 8-9 10-10 6-4 2h-5l4 4 14 7 11 9 6 7 5 10 3 9 1 6v20l-4 15-7 13-11 11-10 6-13 5-12 3-9 1-27 1h-55l-38-1-1-5v-225zm45 35v61h67l10-4 7-7 4-10 1-12-3-13-5-7-6-5-9-3zm0 96v69l1 1h59l16-3 9-5 7-8 3-7 1-5v-15l-3-10-6-8-6-5-7-3-5-1z" fill="#23467B"/>
<path transform="translate(1833,65)" d="m0 0h97l23 2 17 4 15 6 10 7 9 8 6 9 7 14 4 12 3 14 2 19v45l-3 25-5 19-8 16-11 14-13 9-11 5-21 5-18 2-72 1h-30l-1-1zm46 35v166h47l20-3 12-5 9-8 7-12 4-13 2-11v-64l-5-20-7-13-6-7-14-7-13-3z" fill="#23467B"/>
<path transform="translate(1596,65)" d="m0 0h44l1 4 1 167 3 12 6 10 5 4 14 5 5 1h28l11-3 10-6 4-2 2-6 3-6 1-8 1-171 1-1h44l1 1v173l-3 16-5 12-6 9-8 9-13 8-12 5-14 4-11 2h-43l-22-5-12-5-10-6-12-11-6-10-5-11-3-11z" fill="#22457A"/>
<path transform="translate(582,62)" d="m0 0h30l9 4 10 9 5 6 6 12 6 17 22 71 22 72 13 42v5h-44l-3-6-13-45-1-4-95 1-9 35-5 16-2 3h-42l-1-1 1-9 6-20 13-42 20-66 16-52 7-18 7-13 6-8 11-7zm11 41-4 5-6 18-14 48-9 32v6h74l-2-13-17-59-9-29-5-8z" fill="#23467A"/>
<path transform="translate(1261,62)" d="m0 0h31l9 4 9 7 8 12 8 19 19 62 13 43 20 64 6 21-1 6h-41l-4-6-14-48-94-1-3 10-12 42-2 3h-43l-1-3 17-55 20-66 14-47 6-19 7-19 7-13 10-11zm12 41-4 5-6 18-16 54-7 25v7h74l-1-10-16-55-8-27-6-15-2-2z" fill="#23467B"/>
<path transform="translate(1035,62)" d="m0 0h48l17 4 14 6 11 7 9 8 8 10-2 5-13 11-12 9h-4l-3-3-8-7-8-6-12-6-7-2h-28l-10 3-8 5-5 7-3 10v13l4 9 5 6 13 6 19 6 39 10 14 5 12 7 12 11 7 11 3 9 1 6v26l-3 13-7 14-9 10-15 9-18 6-23 4h-44l-18-4-12-5-11-6-15-14-9-10-1-6 11-11 10-8 5-5 5 1 7 10 9 9 9 6 12 5 11 2h23l16-3 9-4 6-4 5-9v-22l-4-6-10-6-24-8-40-10-11-4-15-8-11-10-6-9-5-10-2-8v-32l4-13 7-12 9-10 13-8 13-6z" fill="#23457A"/>
<path transform="translate(31,87)" d="m0 0h19l15 4 21 9 5 3-2 1-19-7-17-4h-18l-8 4-3 4-1 3v10l5 14 9 15 10 13 12 14 20 20 8 7 17 14 18 13 18 12 21 12 21 10 15 5 9 2h16l6-3 3-3 1-3v-12l-4-12-9-17-14-19-9-10-7 6-4 4 1 5 14 24 15 26 5 9v2h-10l-8-13-16-28-9-16-4 2 2 6 15 26 11 19v2l-12-3-21-9-18-10-17-11-1-2 14-10 14-11 14-12 15-14 10-10 9-11 8-10 9-14 6-13 2-8v-7l-4-8-8-4h-18l-17 4-19 7-4 1 3-3 19-9 15-5 5-1h19l7 3 6 5 4 10v9l-3 12-8 16-9 14-8 10-12 14v3l8 8 9 11 9 12 8 14 5 12 1 4v13l-5 10-9 6h-3v12l-4 10-6 7-12 6-11 2h-126l-14-3-10-6-7-9-2-6-1-12-8-4-6-7-2-5v-15l5-14 8-14 9-12 12-14 6-6-1-4-11-12-12-16-9-15-6-16-1-5v-11l3-8 8-7zm28 98-11 13-11 15-9 16-5 13-1 11 3 7 4 4 5 2h17l18-5 18-8 21-11 11-7-3-3-5 2-18 10-21 10-17 6 16-28 13-22-1-4-4-2-15 26-16 28-2 3h-9l5-10 14-24 15-26 1-5-11-11zm-13 89-5 1v8l3 7 5 5 7 4 5 1h134l11-4 5-4 4-9v-8h-7l-1 9-2 5-5 2-7 2h-130l-9-3-4-4-1-2-1-9z" fill="#27497D"/>
<path transform="translate(315,65)" d="m0 0h45l1 1 1 169 3 12 5 9 7 5 10 3 82 2v34h-90l-15-2-17-6-9-6-8-7-8-13-4-10-3-18-1-44v-111z" fill="#23467B"/>
<path transform="translate(1409,65)" d="m0 0h45l1 1 1 171 3 12 4 6 7 6 11 3 83 2v23l-1 10-1 1h-87l-19-3-10-3-12-7-8-7-6-8-7-15-3-13-1-8z" fill="#23467B"/>
<path transform="translate(126,241)" d="m0 0 5 1 15 9 19 10 21 8 14 4 15 1v1h-7v9l-3 5-8 4-4 1h-130l-9-3-5-5-1-2-1-10 17-3 22-8 24-12z" fill="#627FA9"/>
<path transform="translate(107,66)" d="m0 0h42l7 4 3 5v11l-2 4v61l14 24 5 10-7 6-10-17-12-20v-68l2-2v-8h-42v7l2 3v68l-13 22-8 14-4-1-4-5 14-25 5-9v-60l-3-8 2-9 7-6z" fill="#0FAFEA"/>
<path transform="translate(32,274)" d="m0 0 9 1 2 11 4 7 9 5 5 1h134l11-4 5-5 3-7 1-8 9-1v11l-4 10-6 7-12 6-11 2h-126l-14-3-10-6-7-9-2-6z" fill="#0FAFEA"/>
<path transform="translate(98,184)" d="m0 0h60l6 10-2 4-16 13-14 10-5 2-19-14-16-13 2-5z" fill="#627FA9"/>
<path transform="translate(171,207)" d="m0 0 3 4 16 28 11 19v2l-12-3-21-9-18-10-10-6 20-15 10-8z" fill="#627FA9"/>
<path transform="translate(84,207)" d="m0 0 7 6 15 12 9 6-4 4-18 10-21 10-15 5h-2l2-5 14-25 10-17z" fill="#627FA9"/>
<path transform="translate(182,198)" d="m0 0 3 1 30 52 5 9v2h-10l-8-13-16-28-9-16 2-4z" fill="#0FAFEA"/>
<path transform="translate(72,198)" d="m0 0 4 2 3 3-1 4-10 18-14 24-8 13h-9l-1-2 16-28 15-26z" fill="#0FAFEA"/>
<path transform="translate(137,50)" d="m0 0h6l2 2v5l-3 3-5-1-2-2v-5z" fill="#294C7F"/>
<path transform="translate(165,153)" d="m0 0 4 2 14 11 6 7h-4l-15-15z" fill="#355688"/>
<path transform="translate(89,153)" d="m0 0 2 1-15 14-6 6h-2l1-4 10-9z" fill="#355688"/>
<path transform="translate(114,43)" d="m0 0 4 1 1 5-2 2-4-1-1-1v-5z" fill="#2C4E81"/>
<path transform="translate(77,97)" d="m0 0 5 1 9 5-2 1-13-5z" fill="#3C5D8D"/>
<path transform="translate(130,28)" d="m0 0 3 1v3l-4-1z" fill="#365688"/>
<path transform="translate(93,105)" d="m0 0 2 1z" fill="#637FA9"/>
<path transform="translate(91,104)" d="m0 0 2 1z" fill="#637FA9"/>
<path transform="translate(164,152)" d="m0 0" fill="#637FA9"/>
<path transform="translate(91,152)" d="m0 0" fill="#637FA9"/>
<path transform="translate(163,151)" d="m0 0" fill="#FEFEFE"/>
<path transform="translate(92,151)" d="m0 0" fill="#0FAFEA"/>
<path transform="translate(161,105)" d="m0 0" fill="#637FA9"/>
</svg>
